<svg width="84" height="84" viewBox="0 0 84 84" fill="none" xmlns="http://www.w3.org/2000/svg">
<g filter="url(#filter0_d_2315_82)">
<circle cx="42" cy="36" r="18" fill="#A245FA"/>
</g>
<path d="M44.6667 40.6667C44.3 40.6667 43.9862 40.5362 43.7253 40.2753C43.4644 40.0145 43.3338 39.7005 43.3333 39.3333V32.6667C43.3333 32.3 43.464 31.9862 43.7253 31.7253C43.9867 31.4645 44.3004 31.3338 44.6667 31.3333C45.0329 31.3329 45.3469 31.4636 45.6087 31.7253C45.8704 31.9871 46.0009 32.3009 46 32.6667V39.3333C46 39.7 45.8696 40.014 45.6087 40.2753C45.3478 40.5367 45.0338 40.6671 44.6667 40.6667ZM39.3333 40.6667C38.9667 40.6667 38.6529 40.5362 38.392 40.2753C38.1311 40.0145 38.0004 39.7005 38 39.3333V32.6667C38 32.3 38.1307 31.9862 38.392 31.7253C38.6533 31.4645 38.9671 31.3338 39.3333 31.3333C39.6996 31.3329 40.0136 31.4636 40.2753 31.7253C40.5371 31.9871 40.6676 32.3009 40.6667 32.6667V39.3333C40.6667 39.7 40.5362 40.014 40.2753 40.2753C40.0144 40.5367 39.7004 40.6671 39.3333 40.6667Z" fill="white"/>
<defs>
<filter id="filter0_d_2315_82" x="0" y="0" width="84" height="84" filterUnits="userSpaceOnUse" color-interpolation-filters="sRGB">
<feFlood flood-opacity="0" result="BackgroundImageFix"/>
<feColorMatrix in="SourceAlpha" type="matrix" values="0 0 0 0 0 0 0 0 0 0 0 0 0 0 0 0 0 0 127 0" result="hardAlpha"/>
<feMorphology radius="4" operator="dilate" in="SourceAlpha" result="effect1_dropShadow_2315_82"/>
<feOffset dy="6"/>
<feGaussianBlur stdDeviation="10"/>
<feColorMatrix type="matrix" values="0 0 0 0 0.442629 0 0 0 0 0.510287 0 0 0 0 0.641623 0 0 0 0.08 0"/>
<feBlend mode="normal" in2="BackgroundImageFix" result="effect1_dropShadow_2315_82"/>
<feBlend mode="normal" in="SourceGraphic" in2="effect1_dropShadow_2315_82" result="shape"/>
</filter>
</defs>
</svg>
